<svg width="41" height="51" viewBox="0 0 41 51" fill="none" xmlns="http://www.w3.org/2000/svg">
<path d="M38.1074 12.5315C38.0628 12.0033 37.6179 11.5986 37.0878 11.6038H29.3383V8.6671C29.3383 3.88028 25.4577 0 20.6712 0C15.8844 0 12.0041 3.88028 12.0041 8.6671V11.6038H4.25474C3.72699 11.6058 3.28646 12.0065 3.23508 12.5315L0.563654 43.2439C0.442171 44.6678 0.923323 46.0778 1.8908 47.1306C2.85789 48.1829 4.22208 48.7815 5.65159 48.7803H35.7009C37.1304 48.7815 38.4946 48.1829 39.4616 47.1306C40.4291 46.0778 40.9107 44.6678 40.7892 43.2439L38.1074 12.5315ZM14.0435 8.6671C14.0435 5.00669 17.0108 2.03932 20.6712 2.03932C24.3317 2.03932 27.299 5.00669 27.299 8.6671V11.6038H14.0435V8.6671ZM37.9545 45.752C37.3777 46.3869 36.5584 46.7466 35.7009 46.741H5.64124C4.78369 46.7414 3.96557 46.3817 3.38564 45.75C2.80611 45.1179 2.51813 44.2715 2.59262 43.4172L5.18239 13.6431H12.0041V20.0056C10.3643 20.5103 9.34029 22.1382 9.5956 23.8349C9.85052 25.5313 11.3083 26.786 13.0238 26.786C14.7393 26.786 16.1967 25.5313 16.452 23.8349C16.7069 22.1382 15.6829 20.5103 14.0435 20.0056V13.6328H27.299V20.0056C25.6592 20.5103 24.6352 22.1382 24.8905 23.8349C25.1454 25.5313 26.6032 26.786 28.3187 26.786C30.0342 26.786 31.4916 25.5313 31.7469 23.8349C32.0018 22.1382 30.9778 20.5103 29.3383 20.0056V13.6328H36.1497L38.7395 43.4068C38.8232 44.2648 38.5376 45.1175 37.9545 45.752ZM12.8709 21.9024C12.9724 21.9159 13.0752 21.9159 13.1768 21.9024C13.9307 21.9836 14.49 22.6408 14.4493 23.398C14.4083 24.1556 13.7822 24.749 13.0238 24.749C12.265 24.749 11.6389 24.1556 11.5983 23.398C11.5576 22.6408 12.1165 21.9836 12.8709 21.9024ZM28.1657 21.9024C28.2673 21.9159 28.3701 21.9159 28.4716 21.9024C29.2256 21.9836 29.7848 22.6408 29.7442 23.398C29.7032 24.1556 29.0771 24.749 28.3187 24.749C27.5599 24.749 26.9338 24.1556 26.8932 23.398C26.8525 22.6408 27.4114 21.9836 28.1657 21.9024Z" fill="black"/>
<path d="M20.9864 41.8577C20.1464 41.8577 19.3904 41.7137 18.7184 41.4257C18.0464 41.1257 17.5184 40.7057 17.1344 40.1657C16.7504 39.6257 16.5584 38.9957 16.5584 38.2757H18.7544C18.8024 38.8157 19.0124 39.2597 19.3844 39.6077C19.7684 39.9557 20.3024 40.1297 20.9864 40.1297C21.6944 40.1297 22.2464 39.9617 22.6424 39.6257C23.0384 39.2777 23.2364 38.8337 23.2364 38.2937C23.2364 37.8737 23.1104 37.5317 22.8584 37.2677C22.6184 37.0037 22.3124 36.7997 21.9404 36.6557C21.5804 36.5117 21.0764 36.3557 20.4284 36.1877C19.6124 35.9717 18.9464 35.7557 18.4304 35.5397C17.9264 35.3117 17.4944 34.9637 17.1344 34.4957C16.7744 34.0277 16.5944 33.4037 16.5944 32.6237C16.5944 31.9037 16.7744 31.2737 17.1344 30.7337C17.4944 30.1937 17.9984 29.7797 18.6464 29.4917C19.2944 29.2037 20.0444 29.0597 20.8964 29.0597C22.1084 29.0597 23.0984 29.3657 23.8664 29.9777C24.6464 30.5777 25.0784 31.4057 25.1624 32.4617H22.8944C22.8584 32.0057 22.6424 31.6157 22.2464 31.2917C21.8504 30.9677 21.3284 30.8057 20.6804 30.8057C20.0924 30.8057 19.6124 30.9557 19.2404 31.2557C18.8684 31.5557 18.6824 31.9877 18.6824 32.5517C18.6824 32.9357 18.7964 33.2537 19.0244 33.5057C19.2644 33.7457 19.5644 33.9377 19.9244 34.0817C20.2844 34.2257 20.7764 34.3817 21.4004 34.5497C22.2284 34.7777 22.9004 35.0057 23.4164 35.2337C23.9444 35.4617 24.3884 35.8157 24.7484 36.2957C25.1204 36.7637 25.3064 37.3937 25.3064 38.1857C25.3064 38.8217 25.1324 39.4217 24.7844 39.9857C24.4484 40.5497 23.9504 41.0057 23.2904 41.3537C22.6424 41.6897 21.8744 41.8577 20.9864 41.8577Z" fill="#29A867"/>
</svg>
